<svg width="125" height="36" viewBox="0 0 125 36" fill="none" xmlns="http://www.w3.org/2000/svg">
<path fill-rule="evenodd" clip-rule="evenodd" d="M22.1653 3.53534C21.2064 3.86066 20.3246 4.33152 19.5113 4.94793C18.6979 5.56433 18.0045 6.29203 17.4394 7.14815L0 32.96H8.8096L23.5094 11.2061C23.9118 10.6411 24.4511 10.35 25.136 10.35H30.1359V25.6574H37.4472V3.03879H25.136C24.1087 3.03879 23.1241 3.20145 22.1653 3.52677V3.53534ZM16.7525 32.9612H25.2197L30.1339 25.6586H16.7525V32.9612ZM43.7727 3.03879H51.0841V32.96H43.7727V3.03879Z" fill="url(#paint0_linear_4476_2852)"/>
<path d="M58.7891 4.93902V2.9614H67.0593V4.93902H63.9687V14.0224H61.8797V4.93902H58.7891Z" fill="black"/>
<path d="M72.7524 2.96243C73.4715 2.96243 74.1136 3.10797 74.6787 3.40761C75.2437 3.70725 75.6803 4.11819 75.9886 4.64898C76.2968 5.17977 76.4509 5.77906 76.4509 6.44683C76.4509 7.1574 76.2283 7.79093 75.7745 8.33884C75.3208 8.88676 74.7643 9.28913 74.0794 9.53741L74.0623 9.6487L77.033 13.895V14.0149H74.6359L71.7764 9.85417H70.8004V14.0149H68.7114V2.96243H72.7438H72.7524ZM73.8996 7.52553C74.1992 7.23445 74.3448 6.87489 74.3448 6.4297C74.3448 5.98452 74.1992 5.65064 73.9167 5.351C73.6342 5.05136 73.2489 4.90582 72.7695 4.90582H70.8089V7.96215H72.7438C73.2147 7.96215 73.5999 7.81661 73.8996 7.52553Z" fill="black"/>
<path d="M84.0201 2.96243L88.1809 14.0234H85.8779L84.9533 11.3781H80.7154L79.7908 14.0234H77.4878L81.6315 2.96243H84.0286H84.0201ZM83.2924 6.68654L82.89 5.35956H82.7701L82.3677 6.68654L81.3746 9.46891H84.2684L83.2924 6.68654Z" fill="black"/>
<path d="M95.5934 13.5107C94.703 12.997 94.0095 12.3036 93.4958 11.4218C92.9822 10.54 92.7339 9.56402 92.7339 8.49387C92.7339 7.42373 92.9907 6.44775 93.4958 5.56595C94.0095 4.68416 94.703 3.9907 95.5934 3.47703C96.4838 2.96336 97.4597 2.71509 98.5299 2.71509C100.199 2.71509 101.578 3.31437 102.674 4.52149L101.21 5.94265C100.499 5.11221 99.6086 4.69272 98.547 4.69272C97.8536 4.69272 97.2286 4.84682 96.6635 5.16358C96.0985 5.48034 95.6533 5.92552 95.328 6.49912C95.0026 7.07272 94.84 7.74049 94.84 8.49387C94.84 9.24725 95.0026 9.90646 95.328 10.4886C95.6533 11.0622 96.0985 11.5074 96.6635 11.8242C97.2286 12.1409 97.8621 12.295 98.547 12.295C99.7114 12.295 100.687 11.807 101.466 10.8396L102.948 12.2437C102.4 12.9029 101.758 13.408 101.013 13.7504C100.268 14.0929 99.4374 14.2641 98.5299 14.2641C97.4597 14.2641 96.4838 14.0073 95.5934 13.5022V13.5107Z" fill="black"/>
<path d="M106.708 13.7235C106.066 13.3554 105.561 12.8161 105.21 12.114C104.859 11.412 104.679 10.5816 104.679 9.62275V2.96216H106.751V9.7426C106.751 10.5045 106.948 11.1209 107.333 11.5918C107.718 12.0627 108.266 12.2938 108.977 12.2938C109.688 12.2938 110.235 12.0627 110.621 11.5918C111.006 11.1209 111.203 10.5045 111.203 9.7426V2.96216H113.446C113.831 2.96216 114.02 2.77382 114.02 2.38856V1.13863H115.535V2.34576C115.535 3.04777 115.364 3.57 115.021 3.90389C114.679 4.24634 114.157 4.41756 113.455 4.41756H113.283V9.62275C113.283 10.5388 113.104 11.3521 112.761 12.0456C112.419 12.739 111.914 13.2955 111.263 13.6807C110.612 14.0745 109.859 14.2715 108.994 14.2715C108.129 14.2715 107.376 14.0831 106.734 13.715L106.708 13.7235ZM111.169 0L109.782 2.10605H108.155L108.806 0H111.169Z" fill="black"/>
<path d="M118.051 13.7226C117.408 13.3545 116.903 12.8151 116.552 12.1131C116.201 11.4111 116.021 10.5806 116.021 9.62178V2.9612H118.093V9.74164C118.093 10.5036 118.29 11.12 118.676 11.5908C119.061 12.0617 119.609 12.2929 120.319 12.2929C121.03 12.2929 121.578 12.0617 121.963 11.5908C122.348 11.12 122.545 10.5036 122.545 9.74164V2.9612H124.617V9.62178C124.617 10.5378 124.437 11.3511 124.095 12.0446C123.752 12.738 123.247 13.2945 122.597 13.6798C121.946 14.0736 121.193 14.2705 120.328 14.2705C119.463 14.2705 118.71 14.0821 118.068 13.714L118.051 13.7226Z" fill="black"/>
<path d="M61.7179 21.5078V30.5912H66.4009V32.5688H59.6289V21.5078H61.7179Z" fill="black"/>
<path d="M69.822 32.2692C69.1799 31.9011 68.6748 31.3617 68.3238 30.6597C67.9728 29.9577 67.793 29.1272 67.793 28.1684V21.5078H69.8648V28.2883C69.8648 29.0502 70.0617 29.6666 70.447 30.1375C70.8322 30.6083 71.3802 30.8395 72.0907 30.8395C72.8013 30.8395 73.3493 30.6083 73.7345 30.1375C74.1198 29.6666 74.3167 29.0502 74.3167 28.2883V21.5078H76.3885V28.1684C76.3885 29.0844 76.2087 29.8978 75.8663 30.5912C75.5238 31.2847 75.0187 31.8411 74.3681 32.2264C73.7174 32.6202 72.964 32.8171 72.0993 32.8171C71.2346 32.8171 70.4812 32.6288 69.8391 32.2606L69.822 32.2692Z" fill="black"/>
<path d="M84.0508 21.5059L88.2116 32.567H85.9086L84.984 29.9216H80.7462L79.8215 32.567H77.5186L81.6622 21.5059H84.0594H84.0508ZM81.979 18.4753H83.7426L85.5063 20.4187V20.5385H83.5714L82.955 19.6311H82.7666L82.1502 20.5385H80.2154V20.4187L81.979 18.4753ZM83.3231 25.2301L82.9207 23.9031H82.8009L82.3985 25.2301L81.4054 28.0124H84.2991L83.3231 25.2301ZM82.0218 35.6575C81.7992 35.435 81.6794 35.1524 81.6794 34.8186C81.6794 34.4847 81.7907 34.2278 82.0218 33.9967C82.253 33.7655 82.5269 33.6542 82.8523 33.6542C83.1776 33.6542 83.443 33.7655 83.6741 33.9967C83.8967 34.2193 84.0166 34.4932 84.0166 34.8186C84.0166 35.1439 83.9053 35.4264 83.6741 35.6575C83.443 35.8801 83.1776 36 82.8523 36C82.5269 36 82.2444 35.8887 82.0218 35.6575Z" fill="black"/>
<path d="M87.9365 23.4834V21.5058H96.2068V23.4834H93.1161V32.5668H91.0272V23.4834H87.9365Z" fill="black"/>
<defs>
<linearGradient id="paint0_linear_4476_2852" x1="0.42806" y1="33.6547" x2="23.5641" y2="-11.4331" gradientUnits="userSpaceOnUse">
<stop stop-color="#003FB8"/>
<stop offset="1" stop-color="#00FFB3"/>
</linearGradient>
</defs>
</svg>
