<svg xmlns="http://www.w3.org/2000/svg" width="28" height="28" viewBox="0 0 28 28">
  <g id="file-docx" transform="translate(-1 -1)">
    <path id="Path_5185" data-name="Path 5185" d="M27.174,23.87H2.826L1,21.435,3.435,19h23.13L29,21.435Z" transform="translate(0 -7.043)" fill="#12376b"/>
    <path id="Path_5186" data-name="Path 5186" d="M26.913,29H6.217A1.217,1.217,0,0,1,5,27.783V2.217A1.217,1.217,0,0,1,6.217,1H20.826l7.3,7.3V27.783A1.217,1.217,0,0,1,26.913,29Z" transform="translate(-1.565)" fill="#e6e6e6"/>
    <path id="Path_5187" data-name="Path 5187" d="M31,1V7.087A1.217,1.217,0,0,0,32.217,8.3H38.3Z" transform="translate(-11.739)" fill="#b3b3b3"/>
    <path id="Path_5188" data-name="Path 5188" d="M27.783,33.957H2.217A1.217,1.217,0,0,1,1,32.739V23H29v9.739A1.217,1.217,0,0,1,27.783,33.957Z" transform="translate(0 -8.609)" fill="#27549b"/>
    <g id="Group_2561" data-name="Group 2561" transform="translate(-0.798 0.296)">
      <path id="Path_5189" data-name="Path 5189" d="M13.177,30.569a2.611,2.611,0,0,1-.7,1.951,2.675,2.675,0,0,1-1.959.685H8.883V28.147h1.751a2.639,2.639,0,0,1,1.88.623A2.35,2.35,0,0,1,13.177,30.569Zm-1.419.048a1.608,1.608,0,0,0-.275-1.031,1.015,1.015,0,0,0-.835-.336h-.4v2.833h.3a1.1,1.1,0,0,0,.913-.362A1.741,1.741,0,0,0,11.758,30.617Z" transform="translate(-3.085 -10.618)" fill="#fff"/>
      <path id="Path_5190" data-name="Path 5190" d="M21.585,30.625a2.729,2.729,0,0,1-.626,1.941,2.4,2.4,0,0,1-1.834.664,2.4,2.4,0,0,1-1.825-.668,2.718,2.718,0,0,1-.634-1.944,2.7,2.7,0,0,1,.631-1.929,2.409,2.409,0,0,1,1.835-.666,2.4,2.4,0,0,1,1.83.661A2.728,2.728,0,0,1,21.585,30.625Zm-3.48,0q0,1.468,1.02,1.467a.877.877,0,0,0,.77-.356,2.588,2.588,0,0,0,0-2.23.869.869,0,0,0-.759-.362Q18.106,29.145,18.1,30.625Z" transform="translate(-5.855 -10.574)" fill="#fff"/>
      <path id="Path_5191" data-name="Path 5191" d="M27.87,29.156a.871.871,0,0,0-.761.4,1.931,1.931,0,0,0-.274,1.1q0,1.461,1.111,1.461a2.267,2.267,0,0,0,.651-.094,6.529,6.529,0,0,0,.633-.225v1.155a3.489,3.489,0,0,1-1.432.281,2.269,2.269,0,0,1-1.756-.664,2.74,2.74,0,0,1-.61-1.919,3.06,3.06,0,0,1,.3-1.381,2.116,2.116,0,0,1,.85-.915,2.576,2.576,0,0,1,1.306-.319,3.6,3.6,0,0,1,1.567.356l-.418,1.076a4.816,4.816,0,0,0-.56-.222A1.958,1.958,0,0,0,27.87,29.156Z" transform="translate(-8.974 -10.579)" fill="#fff"/>
      <path id="Path_5192" data-name="Path 5192" d="M37.122,33.205H35.541l-.986-1.581-.975,1.581H32.033l1.677-2.588-1.577-2.47h1.516l.913,1.564.878-1.564H37l-1.6,2.577Z" transform="translate(-11.324 -10.618)" fill="#fff"/>
    </g>
  </g>
</svg>
