<svg xmlns="http://www.w3.org/2000/svg" width="28" height="28" viewBox="0 0 28 28">
  <g id="file-pdf" transform="translate(-1 -1)">
    <path id="Path_5178" data-name="Path 5178" d="M27.174,23.87H2.826L1,21.435,3.435,19h23.13L29,21.435Z" transform="translate(0 -7.043)" fill="#870000"/>
    <path id="Path_5179" data-name="Path 5179" d="M26.913,29H6.217A1.217,1.217,0,0,1,5,27.783V2.217A1.217,1.217,0,0,1,6.217,1H20.826l7.3,7.3V27.783A1.217,1.217,0,0,1,26.913,29Z" transform="translate(-1.565)" fill="#e6e6e6"/>
    <path id="Path_5180" data-name="Path 5180" d="M31,1V7.087A1.217,1.217,0,0,0,32.217,8.3H38.3Z" transform="translate(-11.739)" fill="#b3b3b3"/>
    <path id="Path_5181" data-name="Path 5181" d="M27.783,33.957H2.217A1.217,1.217,0,0,1,1,32.739V23H29v9.739A1.217,1.217,0,0,1,27.783,33.957Z" transform="translate(0 -8.609)" fill="#bd0100"/>
    <g id="Group_2560" data-name="Group 2560" transform="translate(-1.14 -0.698)">
      <path id="Path_5182" data-name="Path 5182" d="M18.429,30.056a2.089,2.089,0,0,1-.552,1.553,2.131,2.131,0,0,1-1.57.548h-.424v1.99H14.372v-6h1.935a2.258,2.258,0,0,1,1.591.5A1.84,1.84,0,0,1,18.429,30.056Zm-2.547.78h.276a.72.72,0,0,0,.541-.206.774.774,0,0,0,.2-.565.546.546,0,0,0-.627-.607h-.39v1.379Z" transform="translate(-5.232 -10.623)" fill="#fff"/>
      <path id="Path_5183" data-name="Path 5183" d="M26.068,31.02a3.231,3.231,0,0,1-.771,2.314,2.838,2.838,0,0,1-2.166.813H21.322v-6h1.935a2.8,2.8,0,0,1,2.078.739A2.9,2.9,0,0,1,26.068,31.02Zm-1.568.057a2.01,2.01,0,0,0-.3-1.223,1.086,1.086,0,0,0-.923-.4h-.44v3.36h.337a1.179,1.179,0,0,0,1.01-.429A2.178,2.178,0,0,0,24.5,31.077Z" transform="translate(-7.234 -10.623)" fill="#fff"/>
      <path id="Path_5184" data-name="Path 5184" d="M30.882,34.147H29.395v-6h3.3v1.3H30.883v1.145h1.675v1.3H30.883v2.254Z" transform="translate(-9.56 -10.623)" fill="#fff"/>
    </g>
  </g>
</svg>
