<svg xmlns="http://www.w3.org/2000/svg" width="20" height="24" viewBox="0 0 20 24">
  <g id="file-text" transform="translate(-2)">
    <path id="Path_4127" data-name="Path 4127" d="M14,0H3A1,1,0,0,0,2,1V23a1,1,0,0,0,1,1H21a1,1,0,0,0,1-1V8H15a1,1,0,0,1-1-1ZM5.5,17h13a.5.5,0,0,1,.5.5v1a.5.5,0,0,1-.5.5H5.5a.5.5,0,0,1-.5-.5v-1A.5.5,0,0,1,5.5,17Zm0-5h13a.5.5,0,0,1,.5.5v1a.5.5,0,0,1-.5.5H5.5a.5.5,0,0,1-.5-.5v-1A.5.5,0,0,1,5.5,12Zm5-3h-5A.5.5,0,0,1,5,8.5v-1A.5.5,0,0,1,5.5,7h5a.5.5,0,0,1,.5.5v1A.5.5,0,0,1,10.5,9Z" fill="#999"/>
    <path id="Path_4128" data-name="Path 4128" d="M21.414,6H16V.586Z" fill="#999"/>
  </g>
</svg>
