<?xml version="1.0" encoding="utf-8"?>
<!-- Generator: Adobe Illustrator 23.0.0, SVG Export Plug-In . SVG Version: 6.00 Build 0)  -->
<svg version="1.1" id="Group_42" xmlns="http://www.w3.org/2000/svg" xmlns:xlink="http://www.w3.org/1999/xlink" x="0px" y="0px"
	 viewBox="0 0 868.9 242" style="enable-background:new 0 0 868.9 242;" xml:space="preserve">
<style type="text/css">
	.st0{fill:#ED1C24;}
	.st1{fill:#58595B;}
	.st2{fill:#EC2027;}
	.st3{fill:#78C3ED;}
	.st4{fill:#B2D9ED;}
	.st5{fill:#6598CB;}
	.st6{fill:#FAD7B1;}
	.st7{fill:#FFD393;}
	.st8{fill:#F89821;}
	.st9{fill:#F27623;}
	.st10{fill:#4B83AB;}
	.st11{fill:#6A4C4C;}
	.st12{fill:#573C3C;}
	.st13{fill:#FCCC9A;}
	.st14{fill:#ECBA88;}
	.st15{fill:#222222;}
</style>
<g id="Group_39" transform="translate(-261.358 -550.783)">
	<path id="Path_154" class="st0" d="M409.6,611.7H429v68H450v16.3h-40.4V611.7z"/>
	<path id="Path_155" class="st0" d="M500.6,695.9h-17.5v-7.5h-0.2c-2.3,5.5-7.8,9.1-13.8,8.9c-7.1,0.1-12.9-5.5-13-12.6
		c0-0.6,0-1.3,0.1-1.9v-54.4h18.1v46.1c0,2.5,0,6.5,4.2,6.5c4.2,0,4.2-4.8,4.2-6.5v-46.1h18.1v67.5L500.6,695.9z"/>
	<path id="Path_156" class="st0" d="M553.4,695.9h-16.6v-5.2h-0.2c-3,4.2-7.8,6.7-12.9,6.6c-13.2,0-14.8-9.7-14.8-20.6
		c-0.6-9,5.1-17.2,13.7-19.8c6.8-2.9,13.2-4.5,13.2-11.7c0-3.5-0.8-5.5-4.2-5.5c-2.3-0.3-4.3,1.3-4.6,3.6c0,0.3,0,0.7,0,1v5.5h-16.9
		v-6.2c0-9.8,8.9-16.5,21.4-16.5c16.3,0,22,6.6,22,21.1v47.7L553.4,695.9z M535.8,662l-5.1,3.7c-2.1,1.3-3.3,3.6-3.2,6v8.9
		c0,3.8,1.5,5.4,4,5.4c2.9,0,4.2-2.6,4.2-5.8v-18.2L535.8,662z"/>
	<path id="Path_157" class="st0" d="M562.9,642.3h-4.5v-13.1h4.5v-14.6H581v14.6h4.5v13.1H581v36.1c0,1.7,0,5.2,2.5,5.2h2.3v13.7
		H577c-7.8,0-14.1-1.5-14.1-12.1V642.3z"/>
	<path id="Path_158" class="st1" d="M587.5,611.7h19.8l5.2,59.8h0.2l6.4-59.8h19.5l-14.3,84.2h-24L587.5,611.7z"/>
	<path id="Path_159" class="st1" d="M645.1,611.7h18.1v12.5h-18.1V611.7z M645.1,628.5h18.1v67.4h-18.1V628.5z"/>
	<path id="Path_160" class="st1" d="M673,646.3c0-7.8,4.2-19.2,22.3-19.2c18.1,0,22.3,11.2,22.3,19.2v18.6h-26.3v14.5
		c0,2.3,0,5.5,4.2,5.5s4.2-3.2,4.2-5.5v-8.5h18.1v7.2c0,7.8-4.2,19.2-22.3,19.2c-18.1,0-22.3-11.2-22.3-19.2v-31.9L673,646.3z
		 M691,652.4h8.3V645c0-2.3,0-5.5-4.2-5.5s-4.2,3.2-4.2,5.5V652.4z"/>
	<path id="Path_161" class="st1" d="M726.9,642.3h-4.5v-13.1h4.5v-14.6h18.2v14.6h4.6v13.1h-4.6v36.1c0,1.7,0,5.2,2.5,5.2h2.3v13.7
		h-8.8c-7.8,0-14.1-1.5-14.1-12.1L726.9,642.3z"/>
	<path id="Path_162" class="st1" d="M754.9,628.4h17.5v7.5h0.2c2.3-5.5,7.8-9.1,13.8-8.9c7.1-0.1,12.9,5.5,13,12.5c0,0,0,0,0,0
		c0,0.6,0,1.3-0.1,1.9v54.3h-18.1v-46.1c0-2.5,0-6.5-4.2-6.5c-4.2,0-4.2,4.9-4.2,6.5v46.1h-18.1v-67.4H754.9z"/>
	<path id="Path_163" class="st1" d="M852.1,695.9h-16.6v-5.2h-0.1c-3,4.2-7.8,6.7-12.9,6.6c-13.2,0-14.8-9.7-14.8-20.6
		c-0.6-9,5.1-17.2,13.7-19.8c6.8-2.9,13.2-4.5,13.2-11.7c0-3.5-0.8-5.5-4.2-5.5c-2.3-0.3-4.3,1.3-4.6,3.6c0,0.3,0,0.7,0,1v5.5h-16.9
		v-6.2c0-9.8,8.9-16.5,21.2-16.5c16.3,0,22,6.6,22,21.1L852.1,695.9z M834.6,662l-5.1,3.7c-2.1,1.3-3.3,3.6-3.2,6v8.9
		c0,3.8,1.5,5.4,4,5.4c2.9,0,4.2-2.6,4.2-5.8v-18.2L834.6,662z"/>
	<path id="Path_164" class="st1" d="M861.2,628.4h17.5v8.5h0.2c2.2-5.9,7.8-9.8,14.1-9.7c6.1-0.5,11.6,3.7,12.6,9.7
		c3.5-6.2,6.2-9.7,14.5-9.7c7.1-0.3,13.1,5.3,13.3,12.4c0,0.7,0,1.4-0.1,2.1V696h-18.1v-45.4c0-2.5,0-7.2-4.5-7.2
		c-4.5,0-4.5,5.7-4.5,7.2v45.2h-18v-45.2c0-2.5,0-7.2-4.5-7.2s-4.5,5.7-4.5,7.2v45.2h-18.2V628.4z"/>
	<path id="Path_165" class="st1" d="M582.5,709v-5.2h350.9v5.2H582.5z"/>
	<path id="Path_166" class="st0" d="M387.4,709v-5.2h195v5.2H387.4z"/>
	<path id="Path_167" class="st0" d="M263.2,709v-5.2h79.6v5.2"/>
</g>
<g id="My" transform="translate(-261.358 -550.783)">
	<g id="Group_148">
		<path id="Path_665" class="st2" d="M301.3,675.5h0.3l19.8-56.9h20.2v77.2h-15.5v-52.7l-0.3,0l-19.1,52.7h-10.5l-19.1-52.8l-0.3,0
			v52.8h-15.5v-77.2h20.3L301.3,675.5z"/>
		<path id="Path_666" class="st2" d="M375.4,671.7l0.6,3.2h0.3l11-36.5h16.6l-23.3,65.9c-1.5,3.9-3.7,7.4-6.6,10.4
			c-3.4,3.1-8,4.6-12.6,4.2c-1.2,0-2.4-0.1-3.6-0.3c-1.1-0.2-2.5-0.5-4.1-0.9l1.8-11.3l1.5,0.2c0.5,0.1,0.9,0.1,1.4,0.1
			c2.1,0.1,4.2-0.5,5.9-1.9c1.4-1.3,2.5-2.9,3.2-4.7l1.8-4.5L349,638.5h16.6L375.4,671.7z"/>
	</g>
</g>
<path id="Path_168" class="st3" d="M846.3,138.4V30.5l-16.9-13.6L815.8,0h-61.2c-0.8,0-4,0.3-4,3.1v14.5h41.2l30,30v93.9h20.6
	C843.3,141.5,846.3,141.1,846.3,138.4z"/>
<path id="Path_169" class="st4" d="M754.6,0c-0.8,0-4,0.3-4,3.1v14.5h4.2V0H754.6z"/>
<path id="Path_170" class="st5" d="M822.6,30.6h23.5L815.5,0v25.1C815.7,27.1,816.9,30.3,822.6,30.6z"/>
<g id="Group_40" transform="translate(-261.358 -550.783)">
	<path id="Path_171" class="st4" d="M1012,568.3h41.2l5.2,5.2v-6.9H1012V568.3z"/>
	<path id="Path_172" class="st4" d="M1088.9,597.1h-0.2l-30.3-30.5l-1.4,5.7l26,26v93.9h5.8v-95l0,0L1088.9,597.1z"/>
</g>
<g id="Group_41" transform="translate(-261.358 -550.783)">
	<path id="Path_173" class="st6" d="M989.2,569.2V624l4.2-0.6v-56.9h-0.2C992.4,566.6,989.5,566.8,989.2,569.2z"/>
	<path id="Path_174" class="st6" d="M1047.8,664.4c0.1-24.5-19.7-44.4-44.2-44.4h-0.2c-4.8,0-9.5,0.7-14,2.3v1.7l4.5-0.6h11.5
		c0.2,0,0.4,0,0.6,0.2c0.2,0,0.3,0,0.5,0.1c0.2,0,0.4,0,0.6,0.2c0.2,0,0.3,0,0.5,0.2c0.2,0,0.4,0,0.6,0.2c0.2,0,0.3,0,0.5,0.1
		c0.2,0,0.3,0.2,0.6,0.2c0.2,0,0.3,0,0.5,0.2c0.2,0,0.3,0.2,0.6,0.2c0.2,0,0.3,0.1,0.5,0.1s0.3,0.2,0.6,0.2h0.2c0.2,0,0.3,0,0.3,0.2
		c0.1,0,0.3,0.2,0.6,0.2h0.1c0.2,0,0.2,0,0.3,0.1c0.2,0,0.3,0.2,0.5,0.2l0.5,0.2c0.2,0,0.3,0.2,0.5,0.2l0.3,0.1c0.2,0,0.2,0,0.3,0.2
		c0.2,0,0.4,0.2,0.6,0.3h0.1c0.1,0,0.2,0.1,0.2,0.1c0,0,0,0,0,0c0.2,0.2,0.5,0.2,0.6,0.3l0.3,0.2l0.9,0.5h0.1l0.9,0.5l0.3,0.2
		c0.1,0.2,0.5,0.2,0.6,0.3l0.5,0.2c0.2,0.2,0.3,0.2,0.5,0.3c0.2,0,0.2,0.1,0.3,0.1l0.1,0.2c0.2,0.2,0.3,0.2,0.5,0.3
		c0.1,0,0.1,0.1,0.3,0.1l0.2,0.2c0.2,0.2,0.3,0.2,0.5,0.3c0.2,0.2,0.3,0.1,0.3,0.3c0.1,0.2,0.3,0.2,0.5,0.3l0.3,0.3l0,0
		c0.2,0.2,0.3,0.2,0.5,0.3c0.2,0.2,0.3,0.1,0.3,0.3c0.2,0.2,0.3,0.2,0.5,0.3c0.1,0.2,0.3,0.1,0.3,0.3c0.2,0.2,0.3,0.3,0.5,0.3
		c0.2,0.1,0.3,0.1,0.3,0.3c0.1,0.2,0.3,0.3,0.5,0.3l0.3,0.3c0.2,0.2,0.3,0.3,0.5,0.3l0.3,0.3c0.2,0.2,0.3,0.3,0.5,0.3l0.3,0.3
		l0.5,0.5l0.3,0.3l0.5,0.5l0.3,0.3l0.5,0.5l0.3,0.3l0.2,0.2c2.6,3,4.8,6.3,6.6,9.8v0.2l0.2,0.2c0.2,0.1,0.2,0.5,0.3,0.6l0,0
		c2.3,5.2,3.5,10.9,3.5,16.6v3.4c0,0.5,0,1-0.2,1.4v0.3c0,0.3-0.2,0.8-0.2,1.1v0.3c-0.2,0.9-0.3,1.7-0.5,2.6v0.3
		c-0.2,0.3-0.2,0.8-0.3,1.1v0.1c-0.1,0.5-0.1,0.9-0.3,1.2v0.2c-0.2,0.3-0.2,0.8-0.3,1.1l-0.1,0.3c-0.3,0.8-0.6,1.7-0.9,2.5l-0.2,0.2
		c-0.2,0.3-0.3,0.8-0.5,1.1l-0.2,0.2c-0.1,0.4-0.4,0.9-0.6,1.2l0,0c-0.1,0.4-0.4,0.8-0.6,1.1l-0.2,0.2l-1.4,2.3l-0.1,0.2
		c-0.2,0.3-0.5,0.8-0.6,1.1v0.2c-0.5,0.7-1,1.5-1.5,2.1v0.2c-0.6,0.8-1.1,1.4-1.7,2.1l0,0l-0.9,0.9l0,0l-1.8,1.8l0,0
		c-1.7,1.6-3.5,3-5.4,4.3l0,0c-1.2,0.8-2.3,1.5-3.5,2.1l-12.3,6.5h5.8C1033.2,703.5,1047.8,685.4,1047.8,664.4z"/>
</g>
<path id="Path_175" class="st7" d="M779.5,115.6v1.4c0,0.5,0,1-0.2,1.4v0.3c0,0.3-0.1,0.8-0.1,1.1v0.3c-0.2,0.9-0.3,1.7-0.5,2.6v0.3
	c-0.1,0.3-0.1,0.8-0.3,1.1v0.2c-0.2,0.5-0.2,0.9-0.3,1.2v0.2c-0.1,0.3-0.1,0.8-0.3,1.1l-0.2,0.3c-0.3,0.8-0.6,1.7-0.9,2.5l-0.1,0.1
	c-0.2,0.3-0.3,0.8-0.5,1.1l-0.1,0.1c-0.1,0.4-0.4,0.9-0.6,1.2l0,0c-0.1,0.4-0.4,0.8-0.6,1.1l-0.2,0.1l-1.4,2.3l-0.2,0.1
	c-0.1,0.3-0.5,0.8-0.6,1.1v0.1c-0.5,0.7-1,1.5-1.5,2.1v0.2c-0.6,0.8-1.1,1.4-1.7,2.1l0,0l-0.9,0.9l0,0l-1.8,1.8l0,0
	c-1.7,1.6-3.5,3-5.4,4.3l0,0c-1.2,0.8-2.3,1.5-3.5,2.1l-12.3,6.5H820c0.9,0,3.8-0.3,3.8-3.1V46.3l-16-14.5l-14.5-16h-61.2
	c-0.8,0-3.8,0.3-4,2.9l0.2,54.4l4.5-0.6h11.5c0.2,0,0.4,0,0.6,0.2c0.2,0,0.3,0,0.5,0.2c0.2,0,0.4,0,0.6,0.2c0.2,0,0.3,0,0.5,0.1
	c0.2,0,0.4,0,0.6,0.2c0.2,0,0.3,0,0.5,0.2c0.2,0,0.3,0.2,0.6,0.2c0.2,0,0.3,0,0.5,0.1c0.2,0,0.3,0.2,0.6,0.2c0.2,0,0.3,0.2,0.5,0.2
	c0.2,0,0.3,0.2,0.6,0.2h0.2c0.2,0,0.3,0,0.3,0.1c0.2,0,0.3,0.2,0.6,0.2h0.2c0.2,0,0.2,0,0.3,0.2c0.1,0,0.3,0.2,0.5,0.2l0.5,0.1
	c0.2,0,0.3,0.2,0.5,0.2l0.3,0.2c0.2,0,0.2,0,0.3,0.2c0.2,0,0.4,0.1,0.6,0.3h0.2c0.1,0,0.2,0.1,0.2,0.2c0.2,0.2,0.5,0.2,0.6,0.3
	l0.3,0.2l0.9,0.5h0.2l0.9,0.5l0.3,0.1c0.1,0.2,0.5,0.2,0.6,0.3l0.5,0.2c0.2,0.1,0.3,0.1,0.5,0.3c0.2,0,0.2,0.2,0.3,0.2l0.1,0.2
	c0.2,0.1,0.3,0.1,0.5,0.3c0.1,0,0.1,0.2,0.3,0.2l0.2,0.2c0.2,0.1,0.3,0.1,0.5,0.3s0.3,0.2,0.3,0.3c0.1,0.1,0.3,0.1,0.5,0.3l0.3,0.3
	l0,0c0.2,0.1,0.3,0.1,0.5,0.3s0.3,0.2,0.3,0.3c0.2,0.1,0.3,0.1,0.5,0.3s0.3,0.2,0.3,0.3c0.1,0.1,0.3,0.3,0.5,0.3
	c0.2,0.2,0.3,0.2,0.3,0.3c0.2,0.1,0.3,0.3,0.5,0.3l0.3,0.3c0.2,0.1,0.3,0.3,0.5,0.3l0.3,0.3c0.2,0.1,0.3,0.3,0.5,0.3l0.3,0.3
	l0.5,0.5l0.3,0.3l0.5,0.5l0.3,0.3l0.5,0.5l0.3,0.3l0.2,0.2c2.6,3,4.8,6.3,6.6,9.8v0.1l0.2,0.2c0.1,0.2,0.1,0.5,0.3,0.6l0,0
	c2.3,5.2,3.5,10.9,3.5,16.6v1.7L779.5,115.6z"/>
<circle id="Ellipse_18" class="st8" cx="737.9" cy="113.6" r="44.4"/>
<path id="Path_176" class="st9" d="M698.5,113.6c0.1-23.6,18.4-43,42-44.4H738c-24.5,0.3-44.2,20.5-43.9,45
	c0.3,24.1,19.8,43.6,43.9,43.9h2.5C716.9,156.8,698.4,137.3,698.5,113.6z"/>
<path id="Path_177" class="st5" d="M767.2,143.2c-1.6-3.9-4.7-7-8.6-8.6l-14-5.7l-6.6,6.9l-6.9-6.8l-14,5.5l0,0
	c-4,1.5-7.1,4.7-8.6,8.6l-1.2,2.9l2.5,2c16.3,13.5,40,13.5,56.3,0l2.5-2L767.2,143.2z"/>
<path id="Path_178" class="st10" d="M713.9,148.1l-2.5-2l1.2-2.9c1.6-3.9,4.7-7,8.6-8.6l0,0l11.1-4.3l-1.2-1.1l-14,5.5l0,0
	c-4,1.5-7.1,4.7-8.6,8.6l-1.2,2.9l2.5,2c7.9,6.6,17.9,10.2,28.1,10.2h2C730.3,157.6,721.3,154,713.9,148.1z"/>
<path id="Path_179" class="st11" d="M738.8,77.2h-1.7c-10.9-0.3-20.1,8.3-20.4,19.2v9c0,0,4.6-0.5,5.2-2.6l0,0
	c0.2-0.2,0.3-0.5,0.5-0.6c8.1,0.3,16-2.6,22-8.1c1.6,4,5,7,9.2,8c0.1,0.3,0.3,0.5,0.5,0.8l0,0c0.6,2.1,5.2,2.6,5.2,2.6v-8.9
	c-0.2-10.9-9.3-19.6-20.2-19.4c0,0,0,0-0.1,0L738.8,77.2z M754.3,101.5l0.2-0.2l0,0L754.3,101.5z M754.2,101.6L754.2,101.6l0.1-0.2
	l0,0L754.2,101.6z M753.7,101.9L753.7,101.9l0.5-0.3l-0.2,0.1L753.7,101.9z M754,101.9l-0.2,0.3l0,0l0.3-0.5l0,0L754,101.9z"/>
<path id="Path_180" class="st12" d="M720.3,101.5v-5.1c0.3-10.6,8.9-19.1,19.5-19.2h-2.6c-10.9-0.3-20.1,8.3-20.5,19.2v9
	c1.2-0.1,2.4-0.4,3.5-0.9V101.5z"/>
<path id="Path_181" class="st13" d="M756.9,102.7c-0.8-0.2-1.6-0.1-2.3,0.3c-0.6,0.5-1,1.2-1.1,2v6.9c0,0.8,0.4,1.5,1.1,2
	c0.5,0.3,1,0.5,1.5,0.5c0.3,0,0.5,0,0.8-0.2c0.5-0.1,1-0.3,1.4-0.6c0.3-0.2,0.6-0.4,0.8-0.6c0.3-0.1,0.6-0.3,0.8-0.6
	c1.1-1,1.7-2.5,1.7-4C761.4,105.7,759.5,103.4,756.9,102.7z"/>
<path id="Path_182" class="st14" d="M721.6,103c-0.7-0.5-1.5-0.6-2.3-0.3c-2.6,0.6-4.5,3-4.5,5.7c0.1,2.7,1.9,5,4.5,5.7
	c0.3,0,0.5,0.2,0.8,0.2c1.4,0,2.6-1,2.6-2.4c0,0,0,0,0,0v-6.9C722.5,104.1,722.2,103.4,721.6,103z"/>
<path id="Path_183" class="st13" d="M745.1,123.9c-0.5-0.5-1.1-0.7-1.8-0.6h-0.6c-1,0.2-2,0.3-3.1,0.3h-3.1c-1,0-2.1-0.1-3.1-0.3
	c-0.7-0.2-1.5,0-2.1,0.5c-0.6,0.4-0.9,1.1-0.9,1.8v7.1l0,0c0,0.7,0.3,1.3,0.8,1.8l5.2,4.8c0.5,0.4,1.1,0.7,1.8,0.6l0,0
	c0.7,0,1.3-0.3,1.8-0.8l5.4-5.2c0.5-0.4,0.7-1,0.8-1.7v-6.8C745.9,124.9,745.5,124.4,745.1,123.9z"/>
<path id="Path_184" class="st14" d="M738.5,138.5l-5.2-4.8c-0.5-0.5-0.7-1.1-0.8-1.8l0,0v-7.1c0-0.6,0.3-1.2,0.8-1.7
	c-0.7-0.2-1.4,0-2,0.5c-0.6,0.4-0.9,1.1-0.9,1.8v7.1l0,0c0,0.7,0.3,1.3,0.8,1.8l5.2,4.8c0.5,0.4,1.1,0.7,1.8,0.6l0,0
	c0.7,0,1.3-0.3,1.8-0.8l0,0C739.4,139,738.9,138.9,738.5,138.5z"/>
<path id="Path_185" class="st13" d="M753.1,100.7c-0.3-0.2-0.6-0.3-0.9-0.3c-2.9-1.1-5.4-3.1-6.9-5.8l-0.2-0.2
	c-0.2-0.5-0.7-0.7-1.2-0.4c-0.1,0-0.1,0.1-0.2,0.1l0,0c-3.7,2.6-7.8,4.5-12.1,5.5c-1.4,0.5-2.8,0.6-4,0.9c-1.3,0.3-2.7,0.4-4,0.5
	c-1.3,0-2.4,1.1-2.5,2.5v9.8c0.3,8.1,7.1,14.5,15.2,14.3h3.1c8.1,0.2,14.9-6.2,15.2-14.3V103C754.8,102,754.1,101,753.1,100.7z"/>
<path id="Path_186" class="st14" d="M724.5,113.2v-9.8c0.1-1.3,1.1-2.4,2.5-2.5c1.3,0,2.7-0.2,4-0.5c1.4-0.2,2.7-0.5,4-0.9
	c3.8-1,7.4-2.6,10.8-4.6c-0.1-0.1-0.2-0.3-0.1-0.5l-0.2-0.2c-0.2-0.4-0.8-0.6-1.2-0.4c0,0,0,0,0,0c-0.1,0-0.1,0.1-0.2,0.1l0,0
	c-3.7,2.6-7.8,4.5-12.1,5.5c-1.3,0.4-2.7,0.7-4,0.9c-1.3,0.3-2.7,0.4-4,0.5c-1.3,0-2.4,1.1-2.5,2.5v9.8c0.3,8.1,7.1,14.5,15.2,14.3
	h3.1C731.5,127.7,724.7,121.3,724.5,113.2z"/>
<path id="Path_187" class="st8" d="M801,46.4h22.5l-30.5-30.6v24.7C793.2,42.6,794.4,46.4,801,46.4z"/>
<g id="Quản_lý_văn_bản_theo_nhu_cầu_của_bạn_" transform="translate(-261.358 -550.783)">
	<g id="Group_149">
		<path id="Path_667" class="st15" d="M292.9,766c-0.3,1.9-0.8,3.7-1.6,5.4c-0.7,1.6-1.7,3.1-2.9,4.4l4.4,5.1L289,784l-4.6-5.1
			c-1.2,0.7-2.6,1.3-3.9,1.6c-1.4,0.4-2.9,0.5-4.4,0.5c-3.6,0.2-7.1-1.4-9.3-4.3c-2.3-3.1-3.1-7-2.4-10.7l0.9-6.3
			c0.5-4.2,2.4-8,5.5-10.9c2.9-2.7,6.8-4.2,10.7-4.2c3.7-0.2,7.3,1.4,9.6,4.3c2.4,3,3.3,6.9,2.6,10.7L292.9,766z M289,759.7
			c0.6-2.8,0.1-5.7-1.4-8.1c-1.5-2.1-4-3.2-6.6-3c-2.7,0-5.3,1.1-7.1,3.1c-2.1,2.2-3.4,5-3.8,7.9l-0.9,6.4c-0.6,2.8-0.2,5.7,1.2,8.1
			c1.4,2,3.8,3.2,6.2,3c2.8,0,5.5-1.1,7.4-3.1c2.1-2.2,3.5-5,3.9-8L289,759.7z"/>
		<path id="Path_668" class="st15" d="M314.7,780.5l0.3-3.8c-1,1.3-2.2,2.4-3.7,3.2c-1.4,0.7-3.1,1.1-4.7,1.1
			c-2.4,0.2-4.7-0.9-6.2-2.8c-1.5-2.6-1.9-5.6-1.2-8.5l2.3-15.5h4.8l-2.3,15.6c-0.5,1.9-0.4,4,0.3,5.9c0.9,1.1,2.3,1.7,3.7,1.5
			c3,0.1,5.9-1.5,7.4-4.1l2.8-18.8h4.8l-3.9,26.3L314.7,780.5z"/>
		<path id="Path_669" class="st15" d="M342.1,780.5c0-0.9,0-1.6,0-2.2c0-0.6,0-1.1,0.1-1.7c-1.1,1.3-2.5,2.3-4,3.1
			c-1.5,0.8-3.1,1.3-4.8,1.3c-2.2,0.2-4.3-0.6-5.9-2.1c-1.3-1.6-1.8-3.7-1.4-5.8c0.3-2.5,1.7-4.7,3.9-6c2.6-1.5,5.6-2.2,8.6-2.1h5.2
			l0.4-2.6c0.3-1.3,0-2.7-0.8-3.7c-1-0.9-2.4-1.4-3.8-1.3c-1.4,0-2.7,0.4-3.9,1.2c-1,0.6-1.7,1.6-1.9,2.8l-4.6,0.1v-0.1
			c0.3-2.2,1.6-4.1,3.5-5.3c2.3-1.6,5-2.4,7.7-2.3c2.5-0.1,4.9,0.7,6.8,2.3c1.7,1.7,2.4,4.2,1.8,6.5l-1.9,12.7
			c-0.2,0.9-0.2,1.8-0.3,2.8c0,0.8,0,1.7,0.1,2.5L342.1,780.5z M334.7,777c1.7,0,3.4-0.5,4.8-1.4c1.3-0.7,2.5-1.8,3.2-3.1l0.7-4.2
			H338c-1.7,0-3.4,0.5-4.8,1.5c-1.2,0.8-2,2-2.3,3.4c-0.3,1,0,2,0.6,2.8C332.4,776.8,333.6,777.2,334.7,777z M338.9,750l0.5-3.7
			c0.9,0,1.9-0.2,2.8-0.5c0.5-0.2,0.9-0.7,0.9-1.3c0.1-0.6-0.3-1.2-0.9-1.4c-0.9-0.4-1.8-0.5-2.7-0.5l0.6-2.6
			c1.9-0.1,3.7,0.3,5.3,1.2c1.1,0.7,1.7,2.1,1.4,3.4c-0.1,1-0.6,2-1.4,2.6c-0.8,0.6-1.8,1-2.8,1.1l-0.3,1.7L338.9,750z"/>
		<path id="Path_670" class="st15" d="M361.3,758.1c1-1.3,2.3-2.4,3.8-3.1c1.4-0.7,3-1.1,4.7-1.1c2.3-0.2,4.6,0.8,6.1,2.5
			c1.5,2.3,1.9,5.1,1.3,7.7l-2.5,16.6h-4.8l2.5-16.5c0.5-1.7,0.3-3.5-0.6-5c-1.1-1.1-2.5-1.6-4-1.4c-1.3,0-2.7,0.3-3.8,0.9
			c-1.1,0.6-2.1,1.5-2.9,2.6l-2.9,19.4h-4.8l3.9-26.3h4.3L361.3,758.1z"/>
		<path id="Path_671" class="st15" d="M399.1,780.5h-4.8l5.7-37.9h4.8L399.1,780.5z"/>
		<path id="Path_672" class="st15" d="M416,770.8l0.4,3.3h0.1l9.4-19.9h5.3l-15.6,30.3c-0.9,1.7-2.1,3.3-3.5,4.6
			c-1.4,1.3-3.4,2-5.3,2c-0.5,0-0.9-0.1-1.4-0.1c-0.6-0.1-1-0.2-1.4-0.3l1-3.8c0.3,0,0.6,0,0.9,0c0.6,0,1.1,0.1,1.2,0.1
			c1.1,0,2.1-0.6,2.7-1.4c0.8-0.9,1.5-1.9,2.1-2.9l1.6-2.7l-5.9-25.8h5.3L416,770.8z M423.1,743.6h5.6l0,0.1l-7.4,6.3h-3.4l0-0.1
			L423.1,743.6z"/>
		<path id="Path_673" class="st15" d="M453.8,772.8l0.1,1.8h0.1l0.7-1.9l8.8-18.5h4.9l-13.6,26.3h-3.6l-5.9-26.3h4.9L453.8,772.8z"
			/>
		<path id="Path_674" class="st15" d="M484.7,780.5c0-0.9,0-1.6,0-2.2c0-0.6,0-1.1,0.1-1.7c-1.1,1.3-2.5,2.3-4,3.1
			c-1.5,0.8-3.1,1.3-4.8,1.3c-2.2,0.2-4.3-0.6-5.9-2.1c-1.3-1.6-1.8-3.7-1.4-5.8c0.3-2.5,1.7-4.7,3.9-6c2.6-1.5,5.6-2.2,8.6-2.1h5.2
			l0.4-2.6c0.3-1.3,0-2.7-0.8-3.7c-1-0.9-2.4-1.4-3.8-1.3c-1.4,0-2.7,0.4-3.9,1.2c-1,0.6-1.7,1.6-1.9,2.8l-4.6,0.1v-0.1
			c0.3-2.2,1.6-4.1,3.5-5.3c2.3-1.6,5-2.4,7.7-2.3c2.5-0.1,4.9,0.7,6.8,2.3c1.7,1.7,2.4,4.2,1.8,6.5l-1.9,12.7
			c-0.2,0.9-0.2,1.8-0.3,2.8c0,0.8,0,1.7,0.1,2.5L484.7,780.5z M477.3,777c1.7,0,3.4-0.5,4.8-1.4c1.3-0.7,2.5-1.8,3.2-3.1l0.7-4.2
			h-5.4c-1.7,0-3.4,0.5-4.8,1.5c-1.2,0.8-2,2-2.3,3.4c-0.3,1,0,2,0.6,2.8C475,776.8,476.1,777.2,477.3,777L477.3,777z M491.1,742.9
			l0,0.2c-0.1,1.8-1,3.5-2.5,4.6c-1.6,1.2-3.6,1.8-5.6,1.7c-1.8,0.1-3.7-0.5-5-1.8c-1.2-1.2-1.7-2.9-1.3-4.6l0.1-0.2h3.7
			c-0.2,0.9,0,1.8,0.4,2.6c0.6,0.7,1.5,1.1,2.5,1c1,0,2-0.3,2.7-1c0.7-0.7,1.1-1.6,1.3-2.6L491.1,742.9z"/>
		<path id="Path_675" class="st15" d="M503.9,758.1c1-1.3,2.3-2.4,3.8-3.1c1.4-0.7,3-1.1,4.7-1.1c2.3-0.2,4.6,0.8,6.1,2.5
			c1.5,2.3,1.9,5.1,1.3,7.7l-2.5,16.6h-4.8l2.5-16.5c0.5-1.7,0.2-3.5-0.6-5c-1.1-1.1-2.5-1.6-4-1.4c-1.3,0-2.7,0.3-3.8,0.9
			c-1.1,0.6-2.1,1.5-2.9,2.6l-2.9,19.4h-4.8l3.9-26.3h4.2L503.9,758.1z"/>
		<path id="Path_676" class="st15" d="M560.8,768.4c-0.4,3.4-1.8,6.7-4.1,9.3c-2.1,2.2-5,3.5-8,3.4c-1.5,0-3-0.3-4.3-1.1
			c-1.2-0.8-2.2-1.8-2.8-3.1l-1.4,3.7h-3.7l5.7-37.9h4.8l-2.2,14.7c1-1.1,2.2-2,3.5-2.7c1.4-0.6,2.9-0.9,4.4-0.9
			c2.9-0.1,5.5,1.4,6.9,3.9c1.6,3.2,2,6.7,1.3,10.2L560.8,768.4z M556.1,767.9c0.5-2.5,0.3-5.1-0.5-7.5c-0.8-1.8-2.7-2.9-4.7-2.8
			c-1.4,0-2.7,0.4-3.9,1.1c-1.2,0.8-2.2,1.8-2.9,3l-1.7,11.3c0.3,1.2,1,2.2,2,3c1,0.8,2.3,1.2,3.6,1.1c2.1,0.1,4-0.9,5.3-2.4
			c1.5-1.8,2.4-4,2.7-6.4L556.1,767.9z"/>
		<path id="Path_677" class="st15" d="M581,780.5c0-0.9,0-1.6,0-2.2c0-0.6,0-1.1,0.1-1.7c-1.1,1.3-2.5,2.3-4,3.1
			c-1.5,0.8-3.1,1.3-4.8,1.3c-2.2,0.2-4.3-0.6-5.9-2.1c-1.3-1.6-1.8-3.7-1.3-5.8c0.3-2.5,1.7-4.7,3.9-6c2.6-1.5,5.6-2.2,8.6-2.1h5.2
			l0.4-2.6c0.3-1.3,0-2.7-0.8-3.7c-1-0.9-2.4-1.4-3.8-1.3c-1.4,0-2.7,0.4-3.9,1.2c-1,0.6-1.7,1.6-1.9,2.8l-4.6,0.1v-0.1
			c0.3-2.2,1.6-4.1,3.5-5.3c2.3-1.6,5-2.4,7.7-2.3c2.5-0.1,4.9,0.7,6.8,2.3c1.7,1.7,2.4,4.2,1.8,6.5l-1.9,12.7
			c-0.2,0.9-0.2,1.8-0.3,2.8c0,0.8,0,1.7,0.2,2.5L581,780.5z M573.5,777c1.7,0,3.4-0.5,4.8-1.4c1.3-0.7,2.5-1.8,3.2-3.1l0.7-4.2
			h-5.4c-1.7,0-3.4,0.5-4.8,1.5c-1.2,0.8-2,2-2.3,3.4c-0.3,1,0,2,0.6,2.8C571.3,776.8,572.4,777.2,573.5,777L573.5,777z M577.8,750
			l0.5-3.7c0.9,0,1.9-0.2,2.7-0.5c0.5-0.2,0.9-0.7,0.9-1.3c0.1-0.6-0.3-1.2-0.9-1.4c-0.9-0.4-1.8-0.5-2.7-0.5l0.6-2.6
			c1.9-0.1,3.7,0.3,5.3,1.2c1.1,0.7,1.7,2.1,1.4,3.4c-0.1,1-0.6,2-1.4,2.6c-0.8,0.6-1.8,1-2.8,1.1l-0.3,1.7L577.8,750z"/>
		<path id="Path_678" class="st15" d="M600.1,758.1c1-1.3,2.3-2.4,3.8-3.1c1.4-0.7,3-1.1,4.7-1.1c2.3-0.2,4.6,0.8,6.1,2.5
			c1.5,2.3,1.9,5.1,1.3,7.7l-2.5,16.6h-4.8l2.5-16.5c0.5-1.7,0.2-3.5-0.6-5c-1.1-1.1-2.5-1.6-4-1.4c-1.3,0-2.7,0.3-3.8,0.9
			c-1.1,0.6-2.1,1.5-2.9,2.6l-2.9,19.4h-4.8l3.9-26.3h4.2L600.1,758.1z"/>
		<path id="Path_679" class="st15" d="M644.3,747.9l-0.9,6.4h4.9l-0.5,3.5h-4.9l-2.4,16c-0.3,0.9-0.1,1.8,0.4,2.6
			c0.5,0.5,1.2,0.8,1.9,0.7c0.3,0,0.6,0,0.9-0.1c0.3-0.1,0.6-0.1,0.9-0.2l0.2,3.3c-0.5,0.3-1.1,0.6-1.7,0.7
			c-0.7,0.2-1.4,0.3-2.1,0.3c-1.6,0.1-3.2-0.6-4.3-1.8c-1.1-1.6-1.4-3.6-0.9-5.5l2.4-16h-4.2l0.5-3.5h4.2l1-6.4L644.3,747.9z"/>
		<path id="Path_680" class="st15" d="M657.8,757.6c1.1-1.2,2.3-2.1,3.8-2.8c1.4-0.7,3-1,4.5-1c2.3-0.2,4.6,0.8,6.1,2.5
			c1.5,2.3,1.9,5.1,1.3,7.8l-2.5,16.5h-4.8l2.5-16.5c0.4-1.6,0.2-3.4-0.7-4.9c-1-1.1-2.5-1.7-4-1.5c-1.3,0-2.6,0.3-3.8,0.9
			c-1.2,0.6-2.2,1.4-2.9,2.4l-2.9,19.6h-4.8l5.7-37.9h4.8L657.8,757.6z"/>
		<path id="Path_681" class="st15" d="M688.6,781.1c-3.2,0.2-6.2-1.2-8.2-3.7c-1.9-2.8-2.6-6.2-1.9-9.5l0.2-1.1
			c0.4-3.6,2-6.9,4.6-9.5c2.3-2.3,5.3-3.6,8.6-3.6c2.8-0.3,5.6,1,7.3,3.3c1.5,2.6,2.1,5.7,1.4,8.7l-0.4,2.5h-17
			c-0.4,2.2-0.2,4.5,0.8,6.6c1.1,1.7,3,2.6,5,2.4c1.5,0,2.9-0.2,4.3-0.7c1.3-0.4,2.4-1.1,3.5-1.9l1.4,3.1c-1.2,1-2.6,1.8-4.1,2.3
			C692.5,780.8,690.6,781.1,688.6,781.1z M691.4,757.5c-1.7,0-3.2,0.7-4.4,1.9c-1.4,1.4-2.3,3-2.8,4.9l0.1,0.1h11.8l0-0.4
			c0.3-1.6,0.1-3.3-0.7-4.8C694.5,758.1,693,757.4,691.4,757.5L691.4,757.5z"/>
		<path id="Path_682" class="st15" d="M704.8,767.2c0.4-3.7,2-7.1,4.6-9.7c2.4-2.4,5.7-3.8,9.1-3.7c3.1-0.2,6.1,1.3,8,3.8
			c1.9,2.8,2.5,6.3,1.9,9.6l-0.1,0.5c-0.4,3.7-2,7.1-4.6,9.7c-2.4,2.4-5.8,3.7-9.2,3.6c-3.1,0.2-6.1-1.3-8-3.8
			c-1.9-2.8-2.5-6.3-1.8-9.6L704.8,767.2z M709.5,767.7c-0.5,2.3-0.3,4.8,0.7,7c0.9,1.8,2.8,2.8,4.9,2.7c2.2,0,4.2-1,5.5-2.8
			c1.6-2,2.6-4.4,2.9-6.9l0.1-0.5c0.5-2.3,0.2-4.8-0.7-6.9c-0.9-1.8-2.8-2.8-4.8-2.7c-2.2,0-4.2,1-5.5,2.8c-1.5,2-2.5,4.3-2.8,6.8
			L709.5,767.7z"/>
		<path id="Path_683" class="st15" d="M752.5,758.1c1-1.3,2.3-2.4,3.8-3.1c1.4-0.7,3-1.1,4.7-1.1c2.3-0.2,4.6,0.8,6.1,2.5
			c1.5,2.3,1.9,5.1,1.2,7.7l-2.5,16.6h-4.8l2.5-16.5c0.5-1.7,0.2-3.5-0.6-5c-1.1-1.1-2.5-1.6-4-1.4c-1.3,0-2.7,0.3-3.8,0.9
			c-1.1,0.6-2.1,1.5-2.8,2.6l-2.9,19.4h-4.8l3.9-26.3h4.3L752.5,758.1z"/>
		<path id="Path_684" class="st15" d="M781,757.6c1.1-1.2,2.3-2.1,3.8-2.8c1.4-0.7,3-1,4.5-1c2.3-0.2,4.6,0.8,6.1,2.5
			c1.5,2.3,1.9,5.1,1.3,7.8l-2.5,16.5h-4.8l2.5-16.5c0.4-1.6,0.2-3.4-0.7-4.9c-1-1.1-2.5-1.7-4-1.5c-1.3,0-2.6,0.3-3.8,0.9
			c-1.2,0.6-2.2,1.4-2.9,2.4l-2.9,19.6h-4.8l5.7-37.9h4.8L781,757.6z"/>
		<path id="Path_685" class="st15" d="M818.1,780.5l0.3-3.8c-1,1.3-2.2,2.4-3.7,3.2c-1.4,0.7-3.1,1.1-4.7,1.1
			c-2.4,0.2-4.7-0.9-6.2-2.8c-1.5-2.6-1.9-5.6-1.2-8.5l2.3-15.5h4.8l-2.3,15.6c-0.5,1.9-0.4,4,0.3,5.9c0.9,1.1,2.3,1.7,3.7,1.5
			c3,0.1,5.9-1.5,7.4-4.1l2.8-18.8h4.8l-3.9,26.3L818.1,780.5z"/>
		<path id="Path_686" class="st15" d="M852.6,777.3c1.5,0,2.9-0.5,4-1.5c1.2-0.9,2-2.1,2.2-3.6h4.3l0,0.1c-0.4,2.5-1.7,4.7-3.8,6.1
			c-2.1,1.7-4.7,2.6-7.4,2.6c-3.1,0.2-6.1-1.2-7.9-3.8c-1.8-2.8-2.4-6.1-1.7-9.3l0.1-1c0.4-3.5,2-6.8,4.4-9.4
			c2.4-2.5,5.7-3.8,9.1-3.7c2.5-0.1,5,0.9,6.7,2.7c1.6,1.8,2.3,4.3,1.8,6.7l0,0.1h-4.4c0.3-1.4,0-3-0.9-4.1
			c-0.9-1.1-2.3-1.7-3.7-1.6c-2.2,0-4.2,1-5.5,2.8c-1.4,1.9-2.4,4.2-2.7,6.6l-0.1,1c-0.5,2.3-0.3,4.6,0.6,6.7
			C848.7,776.5,850.6,777.5,852.6,777.3z"/>
		<path id="Path_687" class="st15" d="M883.9,780.5c0-0.9,0-1.6,0-2.2c0-0.6,0-1.1,0.1-1.7c-1.1,1.3-2.5,2.3-4,3.1
			c-1.5,0.8-3.1,1.3-4.8,1.3c-2.2,0.2-4.3-0.6-5.9-2.1c-1.3-1.6-1.8-3.7-1.3-5.8c0.3-2.5,1.7-4.7,3.9-6c2.6-1.5,5.6-2.2,8.6-2.1h5.2
			l0.4-2.6c0.3-1.3,0-2.7-0.8-3.7c-1-0.9-2.4-1.4-3.8-1.3c-1.4,0-2.7,0.4-3.9,1.2c-1,0.6-1.7,1.6-1.9,2.8l-4.6,0.1v-0.1
			c0.3-2.2,1.6-4.1,3.5-5.3c2.3-1.6,5-2.4,7.7-2.3c2.5-0.1,4.9,0.7,6.7,2.3c1.7,1.7,2.4,4.2,1.8,6.5l-1.9,12.7
			c-0.2,0.9-0.3,1.8-0.3,2.8c0,0.8,0,1.7,0.2,2.5L883.9,780.5z M875.7,745.7h-3.6l-4-6.3h5.1L875.7,745.7z M876.5,777
			c1.7,0,3.4-0.5,4.8-1.4c1.3-0.7,2.5-1.8,3.2-3.1l0.7-4.2h-5.4c-1.7,0-3.4,0.5-4.8,1.5c-1.2,0.8-2,2-2.3,3.4c-0.3,1,0,2,0.6,2.8
			C874.2,776.8,875.4,777.2,876.5,777L876.5,777z M891.3,749.8l-0.1,0.1h-4.8l-3.5-3.8l-4.6,3.8h-4.8l-0.1-0.1l7.9-6.2h3.8
			L891.3,749.8z"/>
		<path id="Path_688" class="st15" d="M912.1,780.5l0.3-3.8c-1,1.3-2.2,2.4-3.7,3.2c-1.4,0.7-3.1,1.1-4.7,1.1
			c-2.4,0.2-4.7-0.9-6.2-2.8c-1.5-2.6-1.9-5.6-1.2-8.5l2.3-15.5h4.8l-2.3,15.6c-0.5,1.9-0.4,4,0.3,5.9c0.9,1.1,2.3,1.7,3.7,1.5
			c3,0.1,5.9-1.5,7.4-4.1l2.8-18.8h4.8l-4,26.3H912.1z"/>
		<path id="Path_689" class="st15" d="M946.7,777.3c1.5,0,2.9-0.5,4-1.5c1.2-0.9,2-2.1,2.2-3.6h4.3l0,0.1c-0.4,2.5-1.7,4.7-3.8,6.1
			c-2.1,1.7-4.7,2.6-7.4,2.6c-3.1,0.2-6.1-1.2-7.9-3.8c-1.8-2.8-2.4-6.1-1.7-9.3l0.1-1c0.4-3.5,2-6.8,4.4-9.4
			c2.4-2.5,5.7-3.8,9.1-3.7c2.5-0.1,5,0.9,6.7,2.7c1.6,1.8,2.3,4.3,1.8,6.7l0,0.1h-4.4c0.3-1.5-0.1-3-0.9-4.1
			c-0.9-1.1-2.3-1.7-3.7-1.6c-2.2,0-4.2,1-5.5,2.8c-1.4,1.9-2.4,4.2-2.7,6.6l-0.1,1c-0.5,2.3-0.3,4.6,0.6,6.7
			C942.7,776.5,944.7,777.5,946.7,777.3z"/>
		<path id="Path_690" class="st15" d="M978.8,780.5l0.3-3.8c-1,1.3-2.2,2.4-3.7,3.2c-1.4,0.7-3.1,1.1-4.7,1.1
			c-2.4,0.2-4.7-0.9-6.2-2.8c-1.5-2.6-1.9-5.6-1.2-8.5l2.3-15.5h4.8l-2.3,15.6c-0.5,1.9-0.4,4,0.3,5.9c0.9,1.1,2.3,1.7,3.7,1.5
			c3,0.1,5.9-1.5,7.4-4.1l2.8-18.8h4.8l-3.9,26.3L978.8,780.5z M975.3,750.5l0.5-3.7c0.9,0,1.9-0.2,2.8-0.5c0.5-0.2,0.9-0.7,0.9-1.3
			c0.1-0.6-0.2-1.2-0.9-1.4c-0.9-0.3-1.8-0.5-2.7-0.5l0.6-2.6c1.9-0.1,3.7,0.3,5.3,1.2c1.1,0.7,1.7,2.1,1.4,3.4
			c-0.1,1-0.6,2-1.4,2.6c-0.8,0.6-1.8,1-2.8,1.1l-0.3,1.7L975.3,750.5z"/>
		<path id="Path_691" class="st15" d="M1006.2,780.5c0-0.9,0-1.6,0-2.2c0.6-1.4-0.1-3-1.5-3.6c-1.4-0.6-3,0.1-3.6,1.5
			c-0.5,1.3,0,2.8,1.3,3.5c-1.5,0.8-3.1,1.3-4.8,1.3c-2.2,0.2-4.3-0.6-5.9-2.1c-1.3-1.6-1.8-3.7-1.4-5.8c0.3-2.5,1.7-4.7,3.9-6
			c2.6-1.5,5.6-2.2,8.6-2.1h5.2l0.4-2.6c0.3-1.3,0-2.7-0.8-3.7c-1-0.9-2.4-1.4-3.8-1.3c-1.4,0-2.7,0.4-3.9,1.2
			c-1,0.6-1.7,1.6-1.9,2.8l-4.6,0.1v-0.1c0.3-2.2,1.6-4.1,3.5-5.3c2.3-1.6,5-2.4,7.7-2.3c2.5-0.1,4.9,0.7,6.8,2.3
			c1.7,1.7,2.4,4.2,1.8,6.5l-1.9,12.7c-0.2,0.9-0.2,1.8-0.3,2.8c0,0.8,0,1.7,0.1,2.5L1006.2,780.5z M998.8,777
			c1.7,0,3.4-0.5,4.8-1.4c1.3-0.7,2.5-1.8,3.2-3.1l0.7-4.2h-5.4c-1.7,0-3.4,0.5-4.8,1.5c-1.2,0.8-2,2-2.3,3.4c-0.3,1,0,2,0.6,2.8
			C996.5,776.8,997.7,777.2,998.8,777L998.8,777z"/>
		<path id="Path_692" class="st15" d="M1054,768.4c-0.4,3.4-1.8,6.7-4.1,9.3c-2.1,2.2-5,3.5-8,3.4c-1.5,0-3-0.3-4.3-1.1
			c-1.2-0.7-2.2-1.8-2.8-3.1l-1.4,3.7h-3.7l5.7-37.9h4.8l-2.2,14.7c1-1.1,2.2-2,3.5-2.7c1.4-0.6,2.9-0.9,4.4-0.9
			c2.9-0.1,5.5,1.4,6.9,3.9c1.6,3.2,2,6.7,1.3,10.2L1054,768.4z M1049.3,767.9c0.5-2.5,0.3-5.1-0.5-7.5c-0.8-1.8-2.7-2.9-4.7-2.8
			c-1.4,0-2.7,0.4-3.9,1.1c-1.2,0.8-2.2,1.8-2.9,3l-1.7,11.3c0.3,1.2,1,2.2,2,3c1,0.8,2.3,1.2,3.6,1.1c2.1,0.1,4-0.9,5.3-2.4
			c1.5-1.8,2.4-4,2.7-6.4L1049.3,767.9z"/>
		<path id="Path_693" class="st15" d="M1074.2,780.5c0-0.9,0-1.6,0-2.2c0-0.6,0-1.1,0.1-1.7c-1.1,1.3-2.5,2.3-4,3.1
			c-1.5,0.8-3.1,1.3-4.8,1.3c-2.2,0.2-4.3-0.6-5.9-2.1c-1.3-1.6-1.8-3.7-1.4-5.8c0.3-2.5,1.7-4.7,3.9-6c2.6-1.5,5.6-2.2,8.6-2.1h5.2
			l0.4-2.6c0.3-1.3,0-2.7-0.8-3.7c-1-0.9-2.4-1.4-3.8-1.3c-1.4,0-2.7,0.4-3.9,1.2c-1,0.6-1.7,1.6-1.9,2.8l-4.6,0.1v-0.1
			c0.3-2.2,1.6-4.1,3.5-5.3c2.3-1.6,5-2.4,7.7-2.3c2.5-0.1,4.9,0.7,6.8,2.3c1.7,1.7,2.4,4.2,1.8,6.5l-1.9,12.7
			c-0.2,0.9-0.3,1.8-0.3,2.8c0,0.8,0,1.7,0.1,2.5L1074.2,780.5z M1066.8,777c1.7,0,3.4-0.5,4.8-1.4c1.3-0.7,2.5-1.8,3.2-3.1l0.7-4.2
			h-5.4c-1.7,0-3.4,0.5-4.8,1.5c-1.2,0.8-2,2-2.3,3.4c-0.3,1,0,2,0.6,2.8C1064.5,776.8,1065.7,777.2,1066.8,777z M1068.3,788.7h-5.3
			l0.7-4.9h5.3L1068.3,788.7z"/>
		<path id="Path_694" class="st15" d="M1093.4,758.1c1-1.3,2.3-2.4,3.8-3.1c1.4-0.7,3-1.1,4.7-1.1c2.3-0.2,4.6,0.8,6.1,2.5
			c1.5,2.3,1.9,5.1,1.3,7.7l-2.5,16.6h-4.8l2.5-16.5c0.5-1.7,0.3-3.5-0.6-5c-1.1-1.1-2.5-1.6-4-1.4c-1.3,0-2.7,0.3-3.8,0.9
			c-1.1,0.6-2.1,1.5-2.8,2.6l-2.9,19.4h-4.8l3.9-26.3h4.2L1093.4,758.1z"/>
		<path id="Path_695" class="st15" d="M1119.2,780.5h-4.8l0.7-4.9h4.8L1119.2,780.5z M1120.9,768.9h-4.8l3.5-23.8h4.8L1120.9,768.9z
			"/>
	</g>
</g>
</svg>
